<svg xmlns="http://www.w3.org/2000/svg" xmlns:xlink="http://www.w3.org/1999/xlink" width="600" height="600" viewBox="0 0 600 600"><defs><linearGradient id="linear-gradient" x1="0.13" y1="0.12" x2="0.796" y2="0.782" gradientUnits="objectBoundingBox"><stop offset="0" stop-color="#387eb8"></stop><stop offset="1" stop-color="#366994"></stop></linearGradient><linearGradient id="linear-gradient-2" x1="0.191" y1="0.206" x2="0.907" y2="0.884" gradientUnits="objectBoundingBox"><stop offset="0" stop-color="#ffe052"></stop><stop offset="1" stop-color="#ffc331"></stop></linearGradient><clipPath id="clip-Python"><rect width="600" height="600"></rect></clipPath></defs><g id="Python" clip-path="url(#clip-Python)"><g id="Group_26853" data-name="Group 26853" transform="translate(-25 10.108)"><g id="Shadows" transform="translate(85.807 377.445)"><ellipse id="Ellipse_590" data-name="Ellipse 590" cx="33.054" cy="19.084" rx="33.054" ry="19.084" transform="translate(0 86.039)" fill="#d1d1d1" opacity="0.7"></ellipse><path id="Path_36305" data-name="Path 36305" d="M341.306,294.252,124.07,419.672a5.4,5.4,0,0,0,0,9.36l127.672,73.712a21.116,21.116,0,0,0,21.114,0L490.091,377.323a5.4,5.4,0,0,0,0-9.36l-127.672-73.71A21.11,21.11,0,0,0,341.306,294.252Z" transform="translate(-53.704 -291.423)" fill="#d1d1d1" opacity="0.7"></path><path id="Path_36306" data-name="Path 36306" d="M260.281,295.091l-86.972,50.215a11.479,11.479,0,0,0,0,19.884l43.8,25.286a19.055,19.055,0,0,0,19.054,0l86.973-50.213a11.481,11.481,0,0,0,0-19.886l-43.8-25.286A19.055,19.055,0,0,0,260.281,295.091Z" transform="translate(-37.904 -291.041)" fill="#e6e6e6"></path></g><g id="Plant" transform="translate(68.915 346.05)"><g id="Group_26812" data-name="Group 26812"><g id="Group_26807" data-name="Group 26807" transform="translate(39.311)"><path id="Path_36307" data-name="Path 36307" d="M100.031,355.161s-20.425-19.947-8.8-53.36c6.515-18.726,28.1-32.478,40.4-33.771,0,0-6.67,7.686-9.606,16.2l-15.483,10.293,14.232-4.455-3.032,12.183s-13.237,8-15.2,9.751l14.269-3.729S115.715,342.761,100.031,355.161Z" transform="translate(-87.653 -268.029)" fill="#ba68c8"></path><path id="Path_36308" data-name="Path 36308" d="M100.031,355.161s-20.425-19.947-8.8-53.36c6.515-18.726,28.1-32.478,40.4-33.771,0,0-6.67,7.686-9.606,16.2l-15.483,10.293,14.232-4.455-3.032,12.183s-13.237,8-15.2,9.751l14.269-3.729S115.715,342.761,100.031,355.161Z" transform="translate(-87.653 -268.029)" opacity="0.4"></path><path id="Path_36309" data-name="Path 36309" d="M98.105,349.8s-10.576-41.743,5.071-66.082C103.177,283.714,84.833,305.193,98.105,349.8Z" transform="translate(-85.727 -262.665)" fill="#fff"></path></g><path id="Path_36310" data-name="Path 36310" d="M127.1,337.248l-24.992-.314v0h-.255v0l-24.992.314s-.278,30.788,9.2,43.316h0c2.618,3.331,8.758,5.669,15.915,5.669s13.315-2.346,15.927-5.686C127.376,368.008,127.1,337.248,127.1,337.248Z" transform="translate(-52.033 -244.465)" fill="#37474f"></path><ellipse id="Ellipse_591" data-name="Ellipse 591" cx="25.12" cy="13.486" rx="25.12" ry="13.486" transform="translate(24.827 79.296)" fill="#455a64"></ellipse><g id="Group_26809" data-name="Group 26809" transform="translate(30.406 83.138)"><path id="Path_36311" data-name="Path 36311" d="M100.558,336.047c8.642,0,15.962,2.773,18.54,6.611a5.411,5.411,0,0,0,1-3.033c0-5.328-8.748-9.645-19.541-9.645s-19.541,4.317-19.541,9.645a5.411,5.411,0,0,0,1,3.033C84.6,338.82,91.915,336.047,100.558,336.047Z" transform="translate(-81.017 -329.98)" fill="#263238"></path><g id="Group_26808" data-name="Group 26808" transform="translate(1.002 6.067)"><ellipse id="Ellipse_592" data-name="Ellipse 592" cx="18.54" cy="6.611" rx="18.54" ry="6.611" fill="#e0e0e0"></ellipse></g></g><g id="Group_26810" data-name="Group 26810" transform="translate(0 32.849)"><path id="Path_36312" data-name="Path 36312" d="M108.614,357.14s-9.681-.377-17.984-13.233c-3.425-5.3-5.077-8.088-5.077-8.088l13.488-1.005L83.93,331.036,76.79,320.112l12.549-.931s-9.346-3.274-16.021-3.316c0,0-11.572-20.444-14.958-23.357,0,0,26.691.221,45.715,22.715S111.436,357.716,108.614,357.14Z" transform="translate(-58.36 -292.507)" fill="#ba68c8"></path><path id="Path_36313" data-name="Path 36313" d="M104.111,355.553s6.055-36.47-32.585-58.406C71.526,297.147,111.629,316.41,104.111,355.553Z" transform="translate(-53.857 -290.92)" fill="#fff"></path></g><g id="Group_26811" data-name="Group 26811" transform="translate(46.066 43.808)"><path id="Path_36314" data-name="Path 36314" d="M96.874,354.347s8.77.572,17.471-10.246c3.59-4.462,5.341-6.82,5.341-6.82L107.613,335.1,121.6,333.12l7.471-9.185-11.235-2.021s8.742-2.073,14.767-1.484c0,0,12.366-17.355,15.695-19.664,0,0-24.1-2.314-43.384,16.188S94.273,354.6,96.874,354.347Z" transform="translate(-92.687 -300.673)" fill="#ba68c8"></path><path id="Path_36315" data-name="Path 36315" d="M96.874,354.347s8.77.572,17.471-10.246c3.59-4.462,5.341-6.82,5.341-6.82L107.613,335.1,121.6,333.12l7.471-9.185-11.235-2.021s8.742-2.073,14.767-1.484c0,0,12.366-17.355,15.695-19.664,0,0-24.1-2.314-43.384,16.188S94.273,354.6,96.874,354.347Z" transform="translate(-92.687 -300.673)" opacity="0.2"></path><path id="Path_36316" data-name="Path 36316" d="M95.853,353.316s-2.029-33.473,34.9-49.628C130.751,303.688,92.755,317.293,95.853,353.316Z" transform="translate(-91.665 -299.642)" fill="#fff"></path></g></g></g><g id="Pictures" transform="translate(102.724 62.145)"><g id="Group_26814" data-name="Group 26814" transform="translate(0 82.637)"><path id="Path_36317" data-name="Path 36317" d="M143.62,119.4v66.67L85.882,219.4v-66.67L143.62,119.4Z" transform="translate(-82.757 -117.592)" fill="#fafafa"></path><path id="Path_36318" data-name="Path 36318" d="M138.165,123.466v59.453L86.679,212.644V153.192l51.487-29.726m3.126-5.414L83.553,151.388v66.669l3.126,1.8,57.738-33.335v-66.67l-3.126-1.8Z" transform="translate(-83.553 -118.052)" fill="#e0e0e0"></path><path id="Path_36319" data-name="Path 36319" d="M140.494,124.811v59.452L89.007,213.989V154.537l51.487-29.726m3.126-5.414L85.882,152.732V219.4l57.738-33.335V119.4Z" transform="translate(-82.757 -117.592)" fill="#ebebeb"></path><g id="Group_26813" data-name="Group 26813" transform="translate(8.711 29.434)"><path id="Path_36320" data-name="Path 36320" d="M133.723,160.453,90.044,185.671l12.9-33.575,8.935,10.613,9.137-13.01Z" transform="translate(-90.044 -136.663)" fill="#e0e0e0"></path><path id="Path_36321" data-name="Path 36321" d="M113.332,142.83a8.806,8.806,0,0,1-3.984,6.9c-2.2,1.27-3.984.24-3.984-2.3a8.81,8.81,0,0,1,3.984-6.9C111.548,139.259,113.332,140.288,113.332,142.83Z" transform="translate(-84.805 -139.985)" fill="#e0e0e0"></path></g></g><g id="Group_26816" data-name="Group 26816" transform="translate(31.64)"><path id="Path_36322" data-name="Path 36322" d="M154.982,57.545v53.112l-46,26.556V84.1l46-26.556Z" transform="translate(-106.495 -56.108)" fill="#fafafa"></path><path id="Path_36323" data-name="Path 36323" d="M150.637,60.786v47.363L109.621,131.83V84.468l41.017-23.682m2.489-4.312-46,26.555v53.113l2.491,1.437,46-26.557V57.911l-2.491-1.437Z" transform="translate(-107.13 -56.474)" fill="#e0e0e0"></path><path id="Path_36324" data-name="Path 36324" d="M152.492,61.857V109.22L111.475,132.9V85.539l41.017-23.682m2.491-4.312-46,26.557v53.112l46-26.557V57.545Z" transform="translate(-106.495 -56.108)" fill="#ebebeb"></path><g id="Group_26815" data-name="Group 26815" transform="translate(6.94 23.447)"><path id="Path_36325" data-name="Path 36325" d="M147.1,90.252l-34.8,20.09,10.28-26.747,7.118,8.455,7.279-10.365Z" transform="translate(-112.301 -71.3)" fill="#e0e0e0"></path><path id="Path_36326" data-name="Path 36326" d="M130.854,76.213a7.015,7.015,0,0,1-3.174,5.5c-1.754,1.012-3.174.192-3.174-1.832a7.012,7.012,0,0,1,3.174-5.5C129.432,73.368,130.854,74.188,130.854,76.213Z" transform="translate(-108.127 -73.946)" fill="#e0e0e0"></path></g></g></g><g id="Character" transform="translate(178.483 142.667)"><g id="Group_26845" data-name="Group 26845" transform="translate(0 0)"><g id="Group_26837" data-name="Group 26837"><g id="Group_26817" data-name="Group 26817" transform="translate(32.916 59.425)"><path id="Path_36327" data-name="Path 36327" d="M216.153,287.494l18.668,113.92a3.555,3.555,0,0,0,3.508,2.979h0a3.555,3.555,0,0,0,3.532-3.947l-13.1-117.528Z" transform="translate(-146.879 -118.979)" fill="#263238"></path><path id="Path_36328" data-name="Path 36328" d="M264.173,258.943l18.67,113.92a3.555,3.555,0,0,0,3.508,2.979h0a3.553,3.553,0,0,0,3.531-3.947l-13.1-117.528Z" transform="translate(-130.457 -128.743)" fill="#263238"></path><path id="Path_36329" data-name="Path 36329" d="M201,266.476l-18.423,98.172a2.993,2.993,0,0,1-5.9-.988l13.609-90.986Z" transform="translate(-160.39 -124.602)" fill="#263238"></path><path id="Path_36330" data-name="Path 36330" d="M249.541,239.188l-18.32,97.567a2.993,2.993,0,0,1-5.9-.988l13.5-90.4Z" transform="translate(-143.756 -133.934)" fill="#263238"></path><path id="Path_36331" data-name="Path 36331" d="M263.486,258.218a26.158,26.158,0,0,1-15.421-21.3c-2.97-29.892-13.5-91.493-49.175-70.986-44.033,25.31-28.268,98.807-21.865,122.375a31.745,31.745,0,0,0,8.092,14.075c7.954,8.016,24.424,21.814,52.434,33.565a16.43,16.43,0,0,0,10.849.647c13.915-3.966,50.274-16.139,68.4-39.318a6.335,6.335,0,0,0-1.045-8.861C308.411,282.572,291.822,270.85,263.486,258.218Z" transform="translate(-163.015 -160.391)" fill="#ba68c8"></path><path id="Path_36332" data-name="Path 36332" d="M263.486,258.218a26.158,26.158,0,0,1-15.421-21.3c-2.97-29.892-13.5-91.493-49.175-70.986-44.033,25.31-28.268,98.807-21.865,122.375a31.745,31.745,0,0,0,8.092,14.075c7.954,8.016,24.424,21.814,52.434,33.565a16.43,16.43,0,0,0,10.849.647c13.915-3.966,50.274-16.139,68.4-39.318a6.335,6.335,0,0,0-1.045-8.861C308.411,282.572,291.822,270.85,263.486,258.218Z" transform="translate(-163.015 -160.391)" opacity="0.5"></path><path id="Path_36333" data-name="Path 36333" d="M319.63,293.417a6.281,6.281,0,0,1-1.311,4.221c-.968,1.237-2,2.436-3.061,3.611h0q-.874.964-1.788,1.9l-.036.038q-.906.924-1.845,1.824l-.055.052q-.94.9-1.914,1.767l-.048.044q-.982.876-1.993,1.726l-.025.021c-10.28,8.633-22.755,15.2-33.909,19.942l-.043.019q-1.043.443-2.065.863l-.215.089q-.96.395-1.9.768l-.331.132c-.6.238-1.188.467-1.773.693l-.407.156q-.835.32-1.653.624l-.479.178q-.771.286-1.523.557l-.553.2c-.475.17-.946.337-1.409.5l-.584.2c-.44.153-.876.3-1.3.448l-.623.209c-.4.134-.8.268-1.186.395-.228.077-.448.148-.672.22-.356.115-.713.232-1.057.342l-.717.227-.919.289-.773.238-.773.236c-.326.1-.635.189-.945.28l-.482.144c-.464.136-.911.264-1.335.386a16.43,16.43,0,0,1-10.849-.647c-28.01-11.751-44.48-25.549-52.434-33.565a31.745,31.745,0,0,1-8.092-14.075c-6.4-23.568-22.168-97.065,21.865-122.375.781-.45,1.546-.844,2.3-1.216.165-.081.33-.162.494-.24.745-.35,1.48-.672,2.2-.95.071-.028.141-.05.211-.076.692-.262,1.374-.486,2.045-.682.1-.03.208-.063.311-.091q1.083-.3,2.132-.491l.178-.03a20.165,20.165,0,0,1,4.221-.3l.079,0a17.968,17.968,0,0,1,4,.621h0c-7.035-3.108-15.623-2.967-24.137,1.926-44.035,25.311-28.269,98.808-21.866,122.375l1.083,4.049a38.3,38.3,0,0,0,13.743,20.539l11.427,8.734v-.005a179.755,179.755,0,0,0,40.189,22.892,16.477,16.477,0,0,0,10.881.667c13.908-3.962,50.279-16.136,68.411-39.32a6.212,6.212,0,0,0,1.3-3.452h.028V293.4Z" transform="translate(-164.533 -160.757)" fill="#ba68c8"></path><path id="Path_36334" data-name="Path 36334" d="M319.63,293.417a6.281,6.281,0,0,1-1.311,4.221c-.968,1.237-2,2.436-3.061,3.611h0q-.874.964-1.788,1.9l-.036.038q-.906.924-1.845,1.824l-.055.052q-.94.9-1.914,1.767l-.048.044q-.982.876-1.993,1.726l-.025.021c-10.28,8.633-22.755,15.2-33.909,19.942l-.043.019q-1.043.443-2.065.863l-.215.089q-.96.395-1.9.768l-.331.132c-.6.238-1.188.467-1.773.693l-.407.156q-.835.32-1.653.624l-.479.178q-.771.286-1.523.557l-.553.2c-.475.17-.946.337-1.409.5l-.584.2c-.44.153-.876.3-1.3.448l-.623.209c-.4.134-.8.268-1.186.395-.228.077-.448.148-.672.22-.356.115-.713.232-1.057.342l-.717.227-.919.289-.773.238-.773.236c-.326.1-.635.189-.945.28l-.482.144c-.464.136-.911.264-1.335.386a16.43,16.43,0,0,1-10.849-.647c-28.01-11.751-44.48-25.549-52.434-33.565a31.745,31.745,0,0,1-8.092-14.075c-6.4-23.568-22.168-97.065,21.865-122.375.781-.45,1.546-.844,2.3-1.216.165-.081.33-.162.494-.24.745-.35,1.48-.672,2.2-.95.071-.028.141-.05.211-.076.692-.262,1.374-.486,2.045-.682.1-.03.208-.063.311-.091q1.083-.3,2.132-.491l.178-.03a20.165,20.165,0,0,1,4.221-.3l.079,0a17.968,17.968,0,0,1,4,.621h0c-7.035-3.108-15.623-2.967-24.137,1.926-44.035,25.311-28.269,98.808-21.866,122.375l1.083,4.049a38.3,38.3,0,0,0,13.743,20.539l11.427,8.734v-.005a179.755,179.755,0,0,0,40.189,22.892,16.477,16.477,0,0,0,10.881.667c13.908-3.962,50.279-16.136,68.411-39.32a6.212,6.212,0,0,0,1.3-3.452h.028V293.4Z" transform="translate(-164.533 -160.757)" opacity="0.6"></path></g><g id="Group_26822" data-name="Group 26822" transform="translate(64.002 137.671)"><g id="Group_26820" data-name="Group 26820" transform="translate(41.812)"><path id="Path_36335" data-name="Path 36335" d="M325.353,357.575c-3.013-19.168-6.859-49.82-9.065-67.946q-.217-1.788-.6-3.532a37.585,37.585,0,0,0-17.736-24.016L252.785,235.19,222.12,219.063s-8.162,23.647,1.319,38.1c7.892,12.031,42.729,26.955,53.081,31.98s10.578,6.395,10.36,13.115-.221,15.28,12.5,42.1c3.657,7.706,6.205,13.471,7.985,17.887A28.243,28.243,0,0,0,325.353,357.575Z" transform="translate(-218.854 -219.063)" fill="#ba68c8"></path><path id="Path_36336" data-name="Path 36336" d="M325.353,357.575c-3.013-19.168-6.859-49.82-9.065-67.946a38.206,38.206,0,0,0-1.021-5.265,37.444,37.444,0,0,0-17.239-22.24L252.785,235.19,222.12,219.063s-8.162,23.647,1.319,38.1c7.892,12.031,42.729,26.955,53.081,31.98s10.578,6.395,10.36,13.115-.221,15.28,12.5,42.1c3.657,7.706,6.205,13.471,7.985,17.887A28.243,28.243,0,0,0,325.353,357.575Z" transform="translate(-218.854 -219.063)" opacity="0.7"></path><path id="Path_36337" data-name="Path 36337" d="M288.825,342.58a4.523,4.523,0,0,0,.546,2.285,31.819,31.819,0,0,0,6.8,8.086c6.083,5.489,26.255,26.965,33.347,13.632,0,0-20.839-19.959-23.6-28.168-.785-2.332-1.881-8.275-3.117-16.138a28.243,28.243,0,0,1-17.984,4.674C288.72,336.656,288.893,339.821,288.825,342.58Z" transform="translate(-196.297 -183.765)" fill="#ffa8a7"></path><g id="Group_26819" data-name="Group 26819" transform="translate(89.521 153.994)"><path id="Path_36338" data-name="Path 36338" d="M310.253,337.329l-.578-1.731a2.608,2.608,0,0,0-3.245-1.668l-8.444,2.6a2.6,2.6,0,0,0-1.831,2.48v.844a1.508,1.508,0,0,1-1.508,1.508h0a7.706,7.706,0,0,1-4.9-1.758l-1.18-.973v-2.951h0a5.185,5.185,0,0,0-2.354,4.615c.1,2,.2,4.447.127,5.419-.136,1.763-1.794,9.15.181,11.333s6.4,2.442,11.873,1.851,11.467,4.8,16.543,6.792,26.087,6.3,26.033-7.135c-.013-3.421-3.4-4.816-6.719-6.031s-15.316-5.438-18.391-7.974a28.543,28.543,0,0,1-3.423-3.378A11.437,11.437,0,0,1,310.253,337.329Z" transform="translate(-285.562 -333.813)" fill="#455a64"></path><g id="Group_26818" data-name="Group 26818" transform="translate(0.002 20.139)"><path id="Path_36339" data-name="Path 36339" d="M314.938,360.561c-5.075-1.993-11.066-7.382-16.541-6.792s-9.9.331-11.874-1.851a5.179,5.179,0,0,1-.933-3.1c-.1,2.067.059,4.053.933,5.019,1.977,2.183,6.4,2.444,11.874,1.852s11.466,4.8,16.541,6.792,26.087,6.3,26.035-7.135a4.639,4.639,0,0,0-.076-.581C339.568,366.556,319.835,362.485,314.938,360.561Z" transform="translate(-285.563 -348.82)" fill="#263238"></path></g></g></g><g id="Group_26821" data-name="Group 26821" transform="translate(0 22.775)"><path id="Path_36340" data-name="Path 36340" d="M294.974,375.046c-3.013-19.168-6.858-49.82-9.065-67.946a38.184,38.184,0,0,0-13.177-24.478l-54.21-46.088-28.967-.5s-5.976,24.146,3.507,38.6c7.891,12.031,42.728,26.955,53.08,31.98s10.578,6.395,10.362,13.115-.223,15.28,12.5,42.1c3.657,7.706,6.205,13.471,7.985,17.887A28.242,28.242,0,0,0,294.974,375.046Z" transform="translate(-187.697 -236.034)" fill="#ba68c8"></path><path id="Path_36341" data-name="Path 36341" d="M294.974,375.046c-3.013-19.168-6.858-49.82-9.065-67.946a38.184,38.184,0,0,0-13.177-24.478l-54.21-46.088-28.967-.5s-5.976,24.146,3.507,38.6c7.891,12.031,42.728,26.955,53.08,31.98s10.578,6.395,10.362,13.115-.223,15.28,12.5,42.1c3.657,7.706,6.205,13.471,7.985,17.887A28.242,28.242,0,0,0,294.974,375.046Z" transform="translate(-187.697 -236.034)" opacity="0.7"></path><path id="Path_36342" data-name="Path 36342" d="M258.233,358.2c-.02.8-.556,3.182.561,4.01,1.416,1.051,2.769,4.454,6.8,8.085,6.085,5.489,12.51-6.327,9.747-14.536-.785-2.332-1.882-8.273-3.117-16.137a28.242,28.242,0,0,1-17.984,4.674C258.143,354,258.3,355.439,258.233,358.2Z" transform="translate(-164.942 -200.608)" fill="#ffa8a7"></path></g></g><g id="Group_26823" data-name="Group 26823" transform="translate(121.466 60.201)"><path id="Path_36343" data-name="Path 36343" d="M230.517,161.576h0a17.74,17.74,0,0,1,19.611,11.891,77.441,77.441,0,0,1,3.664,17.732c1.563,18.589,2,27.883,2,27.883l18.672,8.469s-10.084.484-9.4,14.723L241.8,236.411Z" transform="translate(-230.517 -161.327)" fill="#ffa8a7"></path><path id="Path_36344" data-name="Path 36344" d="M256.479,207.855c-2.751-20.137-3.845-30.662-6.205-35.662-3.7-7.837-11.194-11.945-19.757-10.608l7.031,55.291.906-.089a29.208,29.208,0,0,0,16.74-7.4Z" transform="translate(-230.517 -161.335)" fill="#ba68c8"></path><path id="Path_36345" data-name="Path 36345" d="M256.479,207.855c-2.751-20.137-3.845-30.662-6.205-35.662-3.7-7.837-11.194-11.945-19.757-10.608l7.031,55.291.906-.089a29.208,29.208,0,0,0,16.74-7.4Z" transform="translate(-230.517 -161.335)" opacity="0.2"></path><path id="Path_36346" data-name="Path 36346" d="M250.755,204.936a12.94,12.94,0,0,0-5.516,3.387s2.252-4.28,5.4-5.6Z" transform="translate(-225.482 -147.181)" fill="#f28f8f"></path></g><path id="Path_36347" data-name="Path 36347" d="M200.213,177.874,221.1,167.76l17.207-5.938s13.785-4.4,17.313,13.974c2.9,15.1,3.278,72.48,3.278,72.48l-.307,6.279s-7.961,22.3-36.4,24.142-33.973-10.145-33.973-10.145S185.34,192.635,200.213,177.874Z" transform="translate(-123.594 -101.125)" fill="#ba68c8"></path><path id="Path_36348" data-name="Path 36348" d="M248.372,127.959s6.456,16.544-2.46,23.83-5.826-21.985-5.826-21.985Z" transform="translate(-105.955 -112.549)" fill="#263238"></path><g id="Group_26829" data-name="Group 26829" transform="translate(0 110.062)"><g id="Group_26824" data-name="Group 26824" transform="translate(117.846 204.386)"><path id="Path_36349" data-name="Path 36349" d="M236.666,446.713a8.1,8.1,0,0,1-7.329,0c-2.024-1.168-2.024-3.062,0-4.231a8.1,8.1,0,0,1,7.329,0C238.69,443.65,238.69,445.545,236.666,446.713Z" transform="translate(-227.82 -319.732)" fill="#455a64"></path><rect id="Rectangle_3548" data-name="Rectangle 3548" width="10.365" height="124.749" transform="translate(0.009)" fill="#37474f"></rect></g><g id="Group_26825" data-name="Group 26825" transform="translate(0 135.187)"><ellipse id="Ellipse_593" data-name="Ellipse 593" cx="5.183" cy="2.992" rx="5.183" ry="2.992" transform="translate(0 121.873)" fill="#455a64"></ellipse><rect id="Rectangle_3549" data-name="Rectangle 3549" width="10.365" height="124.749" transform="translate(0.01)" fill="#263238"></rect></g><g id="Group_26826" data-name="Group 26826" transform="translate(311.029 92.461)"><path id="Path_36350" data-name="Path 36350" d="M380.618,363.311a8.1,8.1,0,0,1-7.329,0c-2.024-1.169-2.024-3.062,0-4.231a8.1,8.1,0,0,1,7.329,0C382.642,360.248,382.642,362.142,380.618,363.311Z" transform="translate(-371.772 -236.33)" fill="#455a64"></path><rect id="Rectangle_3550" data-name="Rectangle 3550" width="10.365" height="124.75" transform="translate(0.009)" fill="#37474f"></rect></g><g id="Group_26827" data-name="Group 26827" transform="translate(185.252 18.93)"><path id="Path_36351" data-name="Path 36351" d="M285.984,292.832a7.266,7.266,0,0,1-6.574,0c-1.816-1.048-1.816-2.747,0-3.8a7.266,7.266,0,0,1,6.574,0C287.8,290.083,287.8,291.782,285.984,292.832Z" transform="translate(-278.048 -186.723)" fill="#455a64"></path><rect id="Rectangle_3551" data-name="Rectangle 3551" width="9.297" height="104.107" transform="translate(0.009)" fill="#455a64"></rect></g><g id="Group_26828" data-name="Group 26828" transform="translate(0)"><path id="Path_36352" data-name="Path 36352" d="M140.005,283.827v24.819l123.046,71.041V354.867Z" transform="translate(-140.005 -169.305)" fill="#263238"></path><path id="Path_36353" data-name="Path 36353" d="M430.052,251.427,231.695,365.948v24.819L430.052,276.246Z" transform="translate(-108.648 -180.386)" fill="#37474f"></path><path id="Path_36354" data-name="Path 36354" d="M338.363,198.49,140.005,313.011l123.046,71.041L461.409,269.531Z" transform="translate(-140.005 -198.49)" fill="#455a64"></path></g></g><path id="Path_36355" data-name="Path 36355" d="M213.659,267.266l45.119,26.048,75.01-43.378-45.112-26.58Z" transform="translate(-114.817 -79.923)" fill="#ebebeb"></path><path id="Path_36356" data-name="Path 36356" d="M246.365,254.6l16.926-9.772-10.609-6.125-16.926,9.772Z" transform="translate(-107.26 -74.674)" fill="#e0e0e0"></path><path id="Path_36357" data-name="Path 36357" d="M254.518,280.931l-22.8-13.42,44.561-26.971Z" transform="translate(-108.641 -74.046)" fill="#e0e0e0"></path><g id="Group_26830" data-name="Group 26830" transform="translate(144.72 123.202)"><path id="Path_36358" data-name="Path 36358" d="M261.765,208.281l18.05,8.465a160.315,160.315,0,0,1,15.939,4.925s12.556,5.133,13.13,8.5-9.423,11.479-18.207,7.533c-1.771-.8-4.968-2.4-7.326-2.654s-9.358-1.353-14.425-6.185l-21.065-5.479S246.812,210.376,261.765,208.281Z" transform="translate(-247.845 -208.281)" fill="#ffa8a7"></path><path id="Path_36359" data-name="Path 36359" d="M268.115,228.67c2.091,2.237,8.051,7.887,9.351,9.517s4.372-2.565-1.013-8.818a50.627,50.627,0,0,1-13-7.08A52.084,52.084,0,0,0,268.115,228.67Z" transform="translate(-242.509 -203.49)" fill="#ffa8a7"></path></g><g id="Group_26834" data-name="Group 26834" transform="translate(85.305)"><g id="Group_26832" data-name="Group 26832" transform="translate(12.2 40.707)"><g id="Group_26831" data-name="Group 26831"><rect id="Rectangle_3552" data-name="Rectangle 3552" width="21.424" height="25.927" fill="#ffa8a7"></rect></g></g><path id="Path_36360" data-name="Path 36360" d="M233.642,172.736a34.477,34.477,0,0,1-19.682-18.718v-7.209h19.682Z" transform="translate(-200.018 -106.102)" fill="#f28f8f"></path><path id="Path_36361" data-name="Path 36361" d="M242.275,121.532s19.487,2.344,15.018,35.634c-2.067,15.4-6.18,23.178-18.05,21.861-13.451-1.492-32.031-11.938-29.151-38.317S242.275,121.532,242.275,121.532Z" transform="translate(-201.443 -115.054)" fill="#ffa8a7"></path><path id="Path_36362" data-name="Path 36362" d="M234.992,143.423l-.705,11.5,6.858-1.653Z" transform="translate(-193.067 -107.26)" fill="#f28f8f"></path><g id="Group_26833" data-name="Group 26833" transform="translate(28.493 25.936)"><path id="Path_36363" data-name="Path 36363" d="M227.21,143.21a2.347,2.347,0,1,0,2.485-2.2A2.348,2.348,0,0,0,227.21,143.21Z" transform="translate(-223.981 -134.022)" fill="#263238"></path><path id="Path_36364" data-name="Path 36364" d="M238.764,142.7a2.346,2.346,0,1,0,2.485-2.2A2.346,2.346,0,0,0,238.764,142.7Z" transform="translate(-220.03 -134.197)" fill="#263238"></path><path id="Path_36365" data-name="Path 36365" d="M243.981,139.745l-4.412-3s1.871-1.718,3.552-.514S243.981,139.745,243.981,139.745Z" transform="translate(-219.753 -135.802)" fill="#263238"></path><path id="Path_36366" data-name="Path 36366" d="M229.66,138.654l-4.768,2.4s-.592-2.471,1.279-3.354S229.66,138.654,229.66,138.654Z" transform="translate(-224.803 -135.236)" fill="#263238"></path></g><path id="Path_36367" data-name="Path 36367" d="M236.446,156.1s-4.47.133-7.416-2.481c0,0-.758,3.939,2.522,4.9S236.446,156.1,236.446,156.1Z" transform="translate(-194.89 -103.773)" fill="#f28f8f"></path><path id="Path_36368" data-name="Path 36368" d="M215.134,152.372s3,6.23,4.845,6.015,0-23.889,3.843-24.043,21.951,8.846,37.969-2.767c6.148-4.457,7.378-15.833,3.689-14.757s-8.669,4.3-15.4,3.843-30.253-11.376-36.094,4c0,0-13.025-1.062-8.132,24.787,1.214,6.419,5.058,22.343,9.516,23.912Z" transform="translate(-203.167 -116.476)" fill="#263238"></path><path id="Path_36369" data-name="Path 36369" d="M216.594,149.948a13,13,0,0,0-1.056-5.683c-.894-1.994-2.473-4.006-5.214-4.081-6.017-.165-6.829,5.628-6.748,7.691.213,5.415,4.6,11.267,12.76,11.49Z" transform="translate(-203.571 -108.369)" fill="#ffa8a7"></path></g><path id="Path_36370" data-name="Path 36370" d="M217.644,233.923l15.348,12.16a52.122,52.122,0,0,1,7.789,1.349c2.932.88,10.639,3.715,12.679,4.156s-.6,3.952-5.929,2.676c0,0,11.19,7.668,11.039,11.079s-11.635,9.232-19.386,3.519c-1.563-1.153-4.348-3.4-6.6-4.141s-8.861-3.3-12.795-9.092l-13.421-7S202.586,232.813,217.644,233.923Z" transform="translate(-117.454 -76.329)" fill="#ffa8a7"></path><g id="Group_26835" data-name="Group 26835" transform="translate(53.902 73.449)"><path id="Path_36371" data-name="Path 36371" d="M209.7,171.207s8.96,6.945,3.456,28.507-8.447,40.155-8.447,40.155l21.747,15.484s-9.194,3.268-11.275,14.708c0,0-34.279-13.476-34.97-22.124s7.149-46.1,8.342-52.989S195.84,174.467,209.7,171.207Z" transform="translate(-180.171 -171.207)" fill="#ffa8a7"></path><path id="Path_36372" data-name="Path 36372" d="M200.548,222.881a20.291,20.291,0,0,0-8.2.078,17.245,17.245,0,0,1,8.383-2.08Z" transform="translate(-176.006 -154.22)" fill="#f28f8f"></path></g><path id="Path_36373" data-name="Path 36373" d="M332.881,206.8l-7.844,51.339a.118.118,0,0,1-.058.086l-77.911,45.188a.119.119,0,0,1-.177-.121l7.608-49.785a7.377,7.377,0,0,1,3.44-5.18L329.412,204.5A2.3,2.3,0,0,1,332.881,206.8Z" transform="translate(-103.452 -86.491)" fill="#fafafa"></path><path id="Path_36374" data-name="Path 36374" d="M258.433,285.656l-41.619-24.1a6.328,6.328,0,0,1-3.155-5.475h0l45.118,26.048Z" transform="translate(-114.816 -68.733)" fill="#e0e0e0"></path><path id="Path_36375" data-name="Path 36375" d="M277.367,245.732c0,3.666,2.574,5.153,5.749,3.32a12.71,12.71,0,0,0,5.75-9.96c0-3.666-2.574-5.153-5.75-3.32A12.712,12.712,0,0,0,277.367,245.732Z" transform="translate(-93.029 -75.946)" fill="#e0e0e0"></path><path id="Path_36376" data-name="Path 36376" d="M213.7,130.053s-3.535-5.227-1.382-6.918S216.158,126.824,213.7,130.053Z" transform="translate(-115.513 -114.308)" fill="#263238"></path><path id="Path_36377" data-name="Path 36377" d="M215.174,130.221s-6.262-.78-6.118-3.512S214.362,126.245,215.174,130.221Z" transform="translate(-116.392 -113.386)" fill="#263238"></path><path id="Path_36378" data-name="Path 36378" d="M212.673,165.721s4.584,12.518,15.191,10.981,6.221-10.572,6.221-10.572l-2.582-.454Z" transform="translate(-115.157 -99.495)" fill="#ffa8a7"></path><path id="Path_36379" data-name="Path 36379" d="M209.34,171.207s6.984,3.342,5.907,17.384-6.611,42.328-6.611,42.328-24.985,10.111-27.362-4.151c-.615-3.689,5.687-37.815,11.069-45.04A25.435,25.435,0,0,1,209.34,171.207Z" transform="translate(-125.906 -97.758)" fill="#ba68c8"></path><path id="Path_36380" data-name="Path 36380" d="M209.34,171.207s6.984,3.342,5.907,17.384-6.611,42.328-6.611,42.328-24.985,10.111-27.362-4.151c-.615-3.689,5.687-37.815,11.069-45.04A25.435,25.435,0,0,1,209.34,171.207Z" transform="translate(-125.906 -97.758)" opacity="0.2"></path><g id="Group_26836" data-name="Group 26836" transform="translate(155.71 314.093)"><path id="Path_36381" data-name="Path 36381" d="M258.18,355.156a6.759,6.759,0,0,0,4.081,2.849c1.51.24-1.553-3.692,2.1-5.267s12.013-3.752,12.758-.605l.926,3.92a23.276,23.276,0,0,0,5.156,10c2.507,2.86,5.756,6.271,8.272,7.9,4.773,3.083,12.621,10.528,2.547,16.867s-22.46.99-24.885-6.223-4.988-9.3-6.282-10.5-4.31-3.08-5.446-7.945a74.01,74.01,0,0,1-1.363-9.657,3.6,3.6,0,0,1,1.659-3.339h0Z" transform="translate(-256.035 -350.526)" fill="#455a64"></path><path id="Path_36382" data-name="Path 36382" d="M293.565,386.473c-10.076,6.341-22.46.99-24.885-6.223s-4.988-9.3-6.282-10.5c-1.158-1.074-3.69-2.714-5.024-6.538.017.2.04.4.052.6.385,6.246,4.211,7.708,5.5,8.905s3.409,3.175,5.832,10.388,15.2,11.71,25.276,5.371c4.889-3.077,5.55-6.413,4.4-9.386C298.623,381.511,297.382,384.072,293.565,386.473Z" transform="translate(-255.577 -346.186)" fill="#263238"></path></g></g><g id="Group_26842" data-name="Group 26842" transform="translate(69.538 214.454)"><g id="Group_26840" data-name="Group 26840" transform="translate(3.111 15.002)"><path id="Path_36383" data-name="Path 36383" d="M266.767,315.229l-32.106,18.536-40.52-23.395L226.313,291.8a2.755,2.755,0,0,1,2.752,0l37.7,21.767A.962.962,0,0,1,266.767,315.229Z" transform="translate(-194.141 -286.099)" fill="#ba68c8"></path><path id="Path_36384" data-name="Path 36384" d="M266.767,315.229l-32.106,18.536-40.52-23.395L226.313,291.8a2.755,2.755,0,0,1,2.752,0l37.7,21.767A.962.962,0,0,1,266.767,315.229Z" transform="translate(-194.141 -286.099)" opacity="0.7"></path><g id="Group_26838" data-name="Group 26838" transform="translate(2.807 6.296)"><path id="Path_36385" data-name="Path 36385" d="M263.828,314.3l-29.882,17.251L196.233,309.78l29.941-17.288a2.564,2.564,0,0,1,2.563,0l35.09,20.26A.9.9,0,0,1,263.828,314.3Z" transform="translate(-196.233 -292.149)" fill="#fff"></path><path id="Path_36386" data-name="Path 36386" d="M224.335,326.832v-3.365l30.329-17.51v2.867Z" transform="translate(-186.622 -287.427)" fill="#fff"></path></g><path id="Path_36387" data-name="Path 36387" d="M233.946,327.919v-3.365L196.233,302.78v3.365Z" transform="translate(-193.426 -282.217)" fill="#e0e0e0"></path><path id="Path_36388" data-name="Path 36388" d="M266.767,311.258l-32.106,18.536L194.141,306.4l32.172-18.575a2.755,2.755,0,0,1,2.752,0l37.7,21.767A.962.962,0,0,1,266.767,311.258Z" transform="translate(-194.141 -287.458)" fill="#ba68c8"></path><path id="Path_36389" data-name="Path 36389" d="M266.767,311.258l-32.106,18.536L194.141,306.4l32.172-18.575a2.755,2.755,0,0,1,2.752,0l37.7,21.767A.962.962,0,0,1,266.767,311.258Z" transform="translate(-194.141 -287.458)" opacity="0.5"></path><g id="Group_26839" data-name="Group 26839" transform="translate(4.092 19.415)"><path id="Path_36390" data-name="Path 36390" d="M221.788,323.345a.722.722,0,0,1-.986-.675v-3.044a3.992,3.992,0,0,1,1.95-3.419l.114-.067a.358.358,0,0,1,.542.309.631.631,0,0,0,1.261,0,1.62,1.62,0,0,0-2.446-1.394l-.114.067a5.256,5.256,0,0,0-2.569,4.505v3.044a1.988,1.988,0,0,0,3.093,1.653.617.617,0,0,0,.247-.348Z" transform="translate(-189.546 -297.513)" fill="#fff"></path><path id="Path_36391" data-name="Path 36391" d="M217.318,320.765a.722.722,0,0,1-.986-.675v-3.044a3.993,3.993,0,0,1,1.95-3.419l.114-.067a.358.358,0,0,1,.542.309.631.631,0,0,0,1.261,0,1.621,1.621,0,0,0-2.446-1.4l-.114.068a5.256,5.256,0,0,0-2.569,4.505v3.044a1.988,1.988,0,0,0,3.093,1.653.623.623,0,0,0,.246-.348Z" transform="translate(-191.075 -298.395)" fill="#fff"></path><path id="Path_36392" data-name="Path 36392" d="M212.848,318.185a.722.722,0,0,1-.986-.675v-3.044a3.991,3.991,0,0,1,1.95-3.419l.114-.067a.358.358,0,0,1,.542.309.631.631,0,0,0,1.261,0,1.62,1.62,0,0,0-2.446-1.4l-.114.068a5.256,5.256,0,0,0-2.569,4.505v3.044a1.988,1.988,0,0,0,3.093,1.653.623.623,0,0,0,.246-.348Z" transform="translate(-192.604 -299.278)" fill="#fff"></path><path id="Path_36393" data-name="Path 36393" d="M208.378,315.605a.723.723,0,0,1-.986-.675v-3.044a3.992,3.992,0,0,1,1.949-3.419l.115-.068a.359.359,0,0,1,.542.31.631.631,0,0,0,1.261,0,1.62,1.62,0,0,0-2.446-1.4l-.114.068a5.256,5.256,0,0,0-2.569,4.505v3.044a1.988,1.988,0,0,0,3.093,1.653.623.623,0,0,0,.246-.348Z" transform="translate(-194.133 -300.16)" fill="#fff"></path><path id="Path_36394" data-name="Path 36394" d="M203.908,313.025a.723.723,0,0,1-.986-.675v-3.044a3.992,3.992,0,0,1,1.949-3.419l.115-.068a.359.359,0,0,1,.542.31.631.631,0,0,0,1.261,0,1.62,1.62,0,0,0-2.446-1.4l-.114.068a5.256,5.256,0,0,0-2.569,4.505v3.044A1.988,1.988,0,0,0,204.753,314a.623.623,0,0,0,.246-.348Z" transform="translate(-195.661 -301.042)" fill="#fff"></path><path id="Path_36395" data-name="Path 36395" d="M199.438,310.445a.723.723,0,0,1-.986-.675v-3.044a3.991,3.991,0,0,1,1.949-3.419l.115-.068a.359.359,0,0,1,.542.31.631.631,0,1,0,1.261,0,1.62,1.62,0,0,0-2.446-1.4l-.114.067a5.26,5.26,0,0,0-2.569,4.506v3.044a1.987,1.987,0,0,0,3.093,1.652.615.615,0,0,0,.246-.346Z" transform="translate(-197.19 -301.925)" fill="#fff"></path></g></g><path id="Path_36396" data-name="Path 36396" d="M271.7,305.6l-34.71,20.04-45.169-26.078,34.71-20.04Z" transform="translate(-191.823 -275.171)" fill="#e6e6e6"></path><g id="Group_26841" data-name="Group 26841" transform="translate(2.78)"><path id="Path_36397" data-name="Path 36397" d="M272.987,306.049,236.72,323.111l-42.826-29.77,36.266-17.062Z" transform="translate(-193.894 -276.279)" fill="#fafafa"></path></g></g><g id="Group_26844" data-name="Group 26844" transform="translate(39.112 176.329)"><path id="Path_36398" data-name="Path 36398" d="M200.007,258.75H170.553l2.642,31.179h.012c.154,1.661,1.316,3.3,3.515,4.564,4.727,2.73,12.392,2.73,17.12,0,2.2-1.268,3.359-2.9,3.515-4.564h.008Z" transform="translate(-168.671 -244.148)" fill="#ba68c8"></path><g id="Group_26843" data-name="Group 26843"><path id="Path_36399" data-name="Path 36399" d="M202.371,259.92v-2.471h-.581a10.073,10.073,0,0,0-4.282-4.29c-6.487-3.746-17-3.746-23.492,0a10.073,10.073,0,0,0-4.282,4.29h-.582v2.491c0,2.455,1.621,4.908,4.865,6.781,6.487,3.745,17,3.745,23.492,0C200.759,264.844,202.379,262.381,202.371,259.92Z" transform="translate(-169.15 -247.021)" fill="#e0e0e0"></path><path id="Path_36400" data-name="Path 36400" d="M197.507,264.974c-6.487,3.744-17,3.744-23.492,0s-6.487-9.818,0-13.564,17-3.744,23.492,0S203.995,261.229,197.507,264.974Z" transform="translate(-169.15 -247.618)" fill="#ebebeb"></path><path id="Path_36401" data-name="Path 36401" d="M198.228,256.937v-1.979h-.466a8.07,8.07,0,0,0-3.431-3.438c-5.2-3-13.624-3-18.821,0a8.069,8.069,0,0,0-3.431,3.438h-.467v1.994c0,1.967,1.3,3.933,3.9,5.434,5.2,3,13.624,3,18.821,0C196.937,260.881,198.235,258.909,198.228,256.937Z" transform="translate(-168.309 -247.39)" fill="#e0e0e0"></path><path id="Path_36402" data-name="Path 36402" d="M194.331,260.987c-5.2,3-13.624,3-18.821,0s-5.2-7.867,0-10.867,13.624-3,18.821,0S199.528,257.985,194.331,260.987Z" transform="translate(-168.309 -247.869)" fill="#f5f5f5"></path><path id="Path_36403" data-name="Path 36403" d="M191.382,259.037a16.022,16.022,0,0,1-14.488,0c-3.872-2.233-4.006-5.807-.4-8.115.134-.09.268-.178.4-.254a12.326,12.326,0,0,1,2.8-1.146,16.185,16.185,0,0,1,11.689,1.146C195.388,252.976,195.388,256.729,191.382,259.037Z" transform="translate(-167.531 -247.504)" fill="#f0f0f0"></path><path id="Path_36404" data-name="Path 36404" d="M176.893,251.86a16.014,16.014,0,0,1,14.492,0,5.471,5.471,0,0,1,2.947,3.588c.3-1.7-.684-3.47-2.947-4.776a16.014,16.014,0,0,0-14.492,0c-2.263,1.306-3.244,3.072-2.947,4.776A5.467,5.467,0,0,1,176.893,251.86Z" transform="translate(-167.528 -247.503)" fill="#e0e0e0"></path><path id="Path_36405" data-name="Path 36405" d="M181.709,252.112,178.731,254l-2.9-2.085v-1.146c.134-.09.268-.178.4-.254a12.326,12.326,0,0,1,2.8-1.146v.863Z" transform="translate(-166.867 -247.355)" fill="#e0e0e0"></path></g></g></g></g><g id="Screen" transform="translate(360.982 39.892)"><path id="Path_36406" data-name="Path 36406" d="M276,39.892" transform="translate(-275.997 -39.892)" fill="none" stroke="#fff" stroke-miterlimit="10" stroke-width="1.152"></path><g id="Group_26852" data-name="Group 26852" transform="translate(0.738 3.478)"><g id="Group_26847" data-name="Group 26847" transform="translate(41.069)"><g id="Group_26846" data-name="Group 26846"><path id="Path_36407" data-name="Path 36407" d="M486.149,139.73,319.1,43.283c-1.916-1.106-3.641-1.023-4.862-.008l-5.783,4,3.944,4.875V186.864c0,4.934,3,10.667,6.7,12.8l165.391,95.488.307,5.255,6.093-4.176c1.212-.917,1.962-2.718,1.962-5.185V152.534C492.85,147.6,489.851,141.868,486.149,139.73Z" transform="translate(-306.705 -42.483)" fill="#ba68c8"></path><path id="Path_36408" data-name="Path 36408" d="M486.149,139.73,319.1,43.283c-1.916-1.106-3.641-1.023-4.862-.008l-5.783,4,3.944,4.875V186.864c0,4.934,3,10.667,6.7,12.8l165.391,95.488.307,5.255,6.093-4.176c1.212-.917,1.962-2.718,1.962-5.185V152.534C492.85,147.6,489.851,141.868,486.149,139.73Z" transform="translate(-306.705 -42.483)" opacity="0.3"></path><path id="Path_36409" data-name="Path 36409" d="M480.9,299.036,313.852,202.588c-3.7-2.138-6.7-7.869-6.7-12.8V51.269c0-4.935,3-7.2,6.7-5.066L480.9,142.651c3.7,2.136,6.7,7.869,6.7,12.8V293.969C487.605,298.9,484.606,301.172,480.9,299.036Z" transform="translate(-307.15 -41.486)" fill="#ba68c8"></path><path id="Path_36410" data-name="Path 36410" d="M480.9,299.036,313.852,202.588c-3.7-2.138-6.7-7.869-6.7-12.8V51.269c0-4.935,3-7.2,6.7-5.066L480.9,142.651c3.7,2.136,6.7,7.869,6.7,12.8V293.969C487.605,298.9,484.606,301.172,480.9,299.036Z" transform="translate(-307.15 -41.486)" fill="#ba68c8"></path><path id="Path_36411" data-name="Path 36411" d="M480.9,142.651,313.852,46.2c-3.7-2.138-6.7.132-6.7,5.066v6.772L487.605,162.226v-6.772C487.605,150.52,484.606,144.787,480.9,142.651Z" transform="translate(-307.15 -41.486)" fill="#455a64"></path><path id="Path_36412" data-name="Path 36412" d="M311.192,46.741h0a4.1,4.1,0,0,1,1.989.624l167.053,96.448c3.268,1.887,6.03,7.219,6.03,11.642V293.968c0,2.751-1.059,4.529-2.7,4.529a4.061,4.061,0,0,1-1.989-.624L314.523,201.426c-3.269-1.888-6.031-7.22-6.031-11.642V51.269c0-2.751,1.06-4.528,2.7-4.528m0-1.342c-2.378,0-4.042,2.2-4.042,5.87V189.784c0,4.935,3,10.666,6.7,12.8L480.9,299.036a5.376,5.376,0,0,0,2.66.8c2.378,0,4.041-2.2,4.041-5.871V155.454c0-4.934-3-10.667-6.7-12.8L313.852,46.2a5.366,5.366,0,0,0-2.66-.8Z" transform="translate(-307.15 -41.486)" fill="#ba68c8"></path></g></g><g id="Group_26848" data-name="Group 26848" transform="translate(53.501 37.689)"><path id="Path_36413" data-name="Path 36413" d="M381.423,110.123a1.405,1.405,0,0,1-.709-.191L317.124,73.22a1.422,1.422,0,0,1,1.423-2.463l63.589,36.713a1.422,1.422,0,0,1-.713,2.653Z" transform="translate(-316.414 -70.567)" fill="#fff"></path><path id="Path_36414" data-name="Path 36414" d="M443.893,146.19a1.41,1.41,0,0,1-.71-.191l-47.1-27.2a1.421,1.421,0,0,1,1.421-2.461l47.1,27.2a1.421,1.421,0,0,1-.713,2.652Z" transform="translate(-289.412 -54.978)" fill="#fff"></path><path id="Path_36415" data-name="Path 36415" d="M394.056,117.417a1.407,1.407,0,0,1-.71-.191L374.213,106.18a1.422,1.422,0,1,1,1.423-2.463l19.133,11.046a1.422,1.422,0,0,1-.713,2.653Z" transform="translate(-296.89 -59.295)" fill="#fff"></path><path id="Path_36416" data-name="Path 36416" d="M381.423,176.49a1.417,1.417,0,0,1-.709-.189l-63.59-36.714a1.422,1.422,0,0,1,1.423-2.463l63.589,36.714a1.421,1.421,0,0,1-.713,2.652Z" transform="translate(-316.414 -47.87)" fill="#fff"></path><path id="Path_36417" data-name="Path 36417" d="M443.893,212.558a1.424,1.424,0,0,1-.71-.191l-47.1-27.2a1.421,1.421,0,0,1,1.421-2.461l47.1,27.2a1.422,1.422,0,0,1-.713,2.652Z" transform="translate(-289.412 -32.281)" fill="#fff"></path><path id="Path_36418" data-name="Path 36418" d="M394.056,183.783a1.407,1.407,0,0,1-.71-.191l-19.133-11.045a1.422,1.422,0,1,1,1.423-2.463l19.133,11.046a1.421,1.421,0,0,1-.713,2.652Z" transform="translate(-296.89 -36.598)" fill="#fff"></path><path id="Path_36419" data-name="Path 36419" d="M381.423,192.094a1.418,1.418,0,0,1-.709-.189l-63.59-36.713a1.422,1.422,0,0,1,1.423-2.463l63.589,36.713a1.421,1.421,0,0,1-.713,2.652Z" transform="translate(-316.414 -42.534)" fill="#fff"></path><path id="Path_36420" data-name="Path 36420" d="M423.845,216.587a1.419,1.419,0,0,1-.709-.191L396.08,200.777a1.422,1.422,0,1,1,1.421-2.463l27.056,15.619a1.422,1.422,0,0,1-.713,2.653Z" transform="translate(-289.412 -26.944)" fill="#fff"></path><path id="Path_36421" data-name="Path 36421" d="M394.056,199.388a1.421,1.421,0,0,1-.71-.191l-19.133-11.046a1.422,1.422,0,1,1,1.423-2.463l19.133,11.046a1.422,1.422,0,0,1-.713,2.653Z" transform="translate(-296.89 -31.261)" fill="#fff"></path><path id="Path_36422" data-name="Path 36422" d="M349.712,100.06a1.419,1.419,0,0,1-.71-.189L317.124,81.466A1.421,1.421,0,0,1,318.546,79l31.876,18.4a1.421,1.421,0,0,1-.711,2.652Z" transform="translate(-316.414 -67.747)" fill="#fff"></path><path id="Path_36423" data-name="Path 36423" d="M422.027,141.812a1.419,1.419,0,0,1-.71-.189l-47.1-27.2a1.422,1.422,0,1,1,1.423-2.463l47.1,27.2a1.421,1.421,0,0,1-.713,2.652Z" transform="translate(-296.89 -56.475)" fill="#fff"></path><path id="Path_36424" data-name="Path 36424" d="M370.425,112.019a1.419,1.419,0,0,1-.71-.189l-19.131-11.047A1.421,1.421,0,1,1,352,98.322l19.133,11.046a1.421,1.421,0,0,1-.713,2.652Z" transform="translate(-304.972 -61.141)" fill="#fff"></path><path id="Path_36425" data-name="Path 36425" d="M381.423,126.616a1.419,1.419,0,0,1-.709-.191l-63.59-36.713a1.422,1.422,0,0,1,1.423-2.463l63.589,36.713a1.422,1.422,0,0,1-.713,2.653Z" transform="translate(-316.414 -64.927)" fill="#fff"></path><path id="Path_36426" data-name="Path 36426" d="M409.336,142.733a1.424,1.424,0,0,1-.71-.191L396.08,135.3a1.422,1.422,0,0,1,1.421-2.463l12.548,7.244a1.422,1.422,0,0,1-.713,2.653Z" transform="translate(-289.412 -49.337)" fill="#fff"></path><path id="Path_36427" data-name="Path 36427" d="M349.461,116.409a1.419,1.419,0,0,1-.71-.189L336.2,108.975a1.422,1.422,0,0,1,1.421-2.463l12.549,7.244a1.421,1.421,0,0,1-.713,2.652Z" transform="translate(-309.889 -58.34)" fill="#fff"></path><path id="Path_36428" data-name="Path 36428" d="M394.056,133.909a1.419,1.419,0,0,1-.71-.189l-19.133-11.046a1.422,1.422,0,1,1,1.423-2.463l19.133,11.046a1.421,1.421,0,0,1-.713,2.652Z" transform="translate(-296.89 -53.655)" fill="#fff"></path><path id="Path_36429" data-name="Path 36429" d="M338.216,109.916a1.419,1.419,0,0,1-.71-.189L317.124,97.96a1.422,1.422,0,0,1,1.423-2.463l20.381,11.767a1.421,1.421,0,0,1-.711,2.652Z" transform="translate(-316.414 -62.106)" fill="#fff"></path><path id="Path_36430" data-name="Path 36430" d="M370.425,128.514a1.42,1.42,0,0,1-.71-.191l-19.131-11.046A1.421,1.421,0,1,1,352,114.816l19.133,11.046a1.421,1.421,0,0,1-.713,2.652Z" transform="translate(-304.972 -55.5)" fill="#fff"></path><path id="Path_36431" data-name="Path 36431" d="M381.423,143.71a1.417,1.417,0,0,1-.709-.189l-63.59-36.713a1.422,1.422,0,0,1,1.423-2.463l63.589,36.713a1.421,1.421,0,0,1-.713,2.652Z" transform="translate(-316.414 -59.081)" fill="#fff"></path><path id="Path_36432" data-name="Path 36432" d="M443.893,179.778a1.411,1.411,0,0,1-.71-.191l-47.1-27.2a1.421,1.421,0,0,1,1.421-2.461l47.1,27.2a1.421,1.421,0,0,1-.713,2.652Z" transform="translate(-289.412 -43.491)" fill="#fff"></path><path id="Path_36433" data-name="Path 36433" d="M394.056,151a1.42,1.42,0,0,1-.71-.191l-19.133-11.046a1.422,1.422,0,1,1,1.423-2.463l19.133,11.046a1.422,1.422,0,0,1-.713,2.653Z" transform="translate(-296.89 -47.808)" fill="#fff"></path><path id="Path_36434" data-name="Path 36434" d="M349.712,133.648a1.407,1.407,0,0,1-.71-.191l-31.878-18.4a1.422,1.422,0,0,1,1.423-2.463L350.423,131a1.422,1.422,0,0,1-.711,2.653Z" transform="translate(-316.414 -56.26)" fill="#fff"></path><path id="Path_36435" data-name="Path 36435" d="M422.027,175.4a1.419,1.419,0,0,1-.71-.189l-47.1-27.2a1.422,1.422,0,1,1,1.423-2.463l47.1,27.2a1.421,1.421,0,0,1-.713,2.652Z" transform="translate(-296.89 -44.988)" fill="#fff"></path><path id="Path_36436" data-name="Path 36436" d="M370.425,145.608a1.407,1.407,0,0,1-.71-.191l-19.131-11.046A1.422,1.422,0,0,1,352,131.909l19.133,11.047a1.421,1.421,0,0,1-.713,2.652Z" transform="translate(-304.972 -49.654)" fill="#fff"></path><path id="Path_36437" data-name="Path 36437" d="M381.423,160.2a1.417,1.417,0,0,1-.709-.189L317.124,123.3a1.422,1.422,0,0,1,1.423-2.463l63.589,36.713a1.421,1.421,0,0,1-.713,2.652Z" transform="translate(-316.414 -53.44)" fill="#fff"></path><path id="Path_36438" data-name="Path 36438" d="M409.336,176.319a1.422,1.422,0,0,1-.71-.189l-12.546-7.244a1.422,1.422,0,0,1,1.421-2.463l12.548,7.244a1.421,1.421,0,0,1-.713,2.652Z" transform="translate(-289.412 -37.85)" fill="#fff"></path><path id="Path_36439" data-name="Path 36439" d="M349.461,150a1.407,1.407,0,0,1-.71-.191L336.2,142.562a1.421,1.421,0,0,1,1.421-2.461l12.549,7.244a1.421,1.421,0,0,1-.713,2.652Z" transform="translate(-309.889 -46.853)" fill="#fff"></path><path id="Path_36440" data-name="Path 36440" d="M394.056,167.5a1.42,1.42,0,0,1-.71-.191l-19.133-11.046a1.422,1.422,0,1,1,1.423-2.463l19.133,11.046a1.422,1.422,0,0,1-.713,2.653Z" transform="translate(-296.89 -42.168)" fill="#fff"></path><path id="Path_36441" data-name="Path 36441" d="M338.216,143.5a1.419,1.419,0,0,1-.71-.189l-20.382-11.767a1.422,1.422,0,0,1,1.423-2.463l20.381,11.767a1.421,1.421,0,0,1-.711,2.652Z" transform="translate(-316.414 -50.62)" fill="#fff"></path><path id="Path_36442" data-name="Path 36442" d="M370.425,162.1a1.407,1.407,0,0,1-.71-.191l-19.131-11.046A1.421,1.421,0,1,1,352,148.4l19.133,11.046a1.421,1.421,0,0,1-.713,2.652Z" transform="translate(-304.972 -44.014)" fill="#fff"></path><path id="Path_36443" data-name="Path 36443" d="M349.461,165.8a1.419,1.419,0,0,1-.71-.189L336.2,158.37a1.422,1.422,0,0,1,1.421-2.463l12.549,7.244a1.421,1.421,0,0,1-.713,2.652Z" transform="translate(-309.889 -41.447)" fill="#fff"></path><path id="Path_36444" data-name="Path 36444" d="M338.216,159.312a1.421,1.421,0,0,1-.71-.191l-20.382-11.767a1.422,1.422,0,0,1,1.423-2.463l20.381,11.767a1.422,1.422,0,0,1-.711,2.653Z" transform="translate(-316.414 -45.214)" fill="#fff"></path><path id="Path_36445" data-name="Path 36445" d="M370.425,177.909a1.421,1.421,0,0,1-.71-.191l-19.131-11.046A1.422,1.422,0,1,1,352,164.209l19.133,11.047a1.421,1.421,0,0,1-.713,2.652Z" transform="translate(-304.972 -38.607)" fill="#fff"></path></g><g id="Group_26850" data-name="Group 26850" transform="translate(0 14.824)"><g id="Group_26849" data-name="Group 26849" transform="translate(0.252)"><path id="Path_36446" data-name="Path 36446" d="M327.623,83.3v51.457c0,.825-.3,1.381-.766,1.563l-.013,0h0l-1.97,1.08.011-1.754-.279-52.9,2.579-1.3A4.493,4.493,0,0,1,327.623,83.3Z" transform="translate(-260.365 -43.982)" fill="#263238"></path><path id="Path_36447" data-name="Path 36447" d="M343.46,90.994l-2.579,1.3L278.489,55.723,277,54.859l2.055-1.158.059-.035h0a1.175,1.175,0,0,1,1.228.089l61.7,35.551A3.805,3.805,0,0,1,343.46,90.994Z" transform="translate(-276.644 -53.53)" fill="#37474f"></path><path id="Path_36448" data-name="Path 36448" d="M341.756,93.624V144.74a1.686,1.686,0,0,1-.588,1.461l-.119.064a1.2,1.2,0,0,1-1.137-.132L278.582,110.8a4.42,4.42,0,0,1-1.847-3.525V56.157a1.717,1.717,0,0,1,.552-1.435.857.857,0,0,1,.187-.106,1.231,1.231,0,0,1,1.108.148L339.912,90.1a3.73,3.73,0,0,1,1.366,1.6A4.492,4.492,0,0,1,341.756,93.624Z" transform="translate(-276.735 -53.184)" fill="#455a64"></path></g><path id="Path_36449" data-name="Path 36449" d="M277.668,54.727a1.153,1.153,0,0,1,.565.176l61.7,35.552a3.39,3.39,0,0,1,1.237,1.461,4.155,4.155,0,0,1,.447,1.785v51.425a1.407,1.407,0,0,1-.413,1.169l-.1.056a.614.614,0,0,1-.264.056,1.148,1.148,0,0,1-.562-.176l-61.7-35.551a4.137,4.137,0,0,1-1.686-3.249V56.009a1.433,1.433,0,0,1,.416-1.168.473.473,0,0,1,.119-.067.627.627,0,0,1,.243-.047m0-.342a.969.969,0,0,0-.377.074.826.826,0,0,0-.189.107,1.728,1.728,0,0,0-.554,1.443v51.424a4.447,4.447,0,0,0,1.857,3.546l61.7,35.551a1.48,1.48,0,0,0,.733.223.953.953,0,0,0,.411-.09l.119-.066a1.691,1.691,0,0,0,.592-1.469V93.7a4.51,4.51,0,0,0-.482-1.935,3.733,3.733,0,0,0-1.373-1.609L278.4,54.606a1.5,1.5,0,0,0-.737-.221Z" transform="translate(-276.547 -53.237)" fill="#37474f"></path></g><g id="Group_26851" data-name="Group 26851" transform="translate(52.993 13.349)"><path id="Path_36450" data-name="Path 36450" d="M320.627,56.72c0,1.464-1.028,2.057-2.3,1.326a5.075,5.075,0,0,1-2.3-3.976c0-1.464,1.028-2.057,2.3-1.326A5.077,5.077,0,0,1,320.627,56.72Z" transform="translate(-316.035 -52.431)" fill="#fff"></path><path id="Path_36451" data-name="Path 36451" d="M326.985,60.646c0,1.464-1.027,2.057-2.295,1.326a5.075,5.075,0,0,1-2.3-3.976c0-1.464,1.028-2.057,2.3-1.326A5.074,5.074,0,0,1,326.985,60.646Z" transform="translate(-313.86 -51.088)" fill="#fff"></path><path id="Path_36452" data-name="Path 36452" d="M333.344,64.572c0,1.464-1.028,2.057-2.3,1.326a5.077,5.077,0,0,1-2.295-3.976c0-1.464,1.028-2.057,2.295-1.326A5.073,5.073,0,0,1,333.344,64.572Z" transform="translate(-311.686 -49.745)" fill="#fff"></path></g></g></g></g><g id="python-seeklogo.com" transform="matrix(0.646, 0.343, -0.171, 0.936, 355.247, 86.921)"><path id="Path_36453" data-name="Path 36453" d="M21.593.072c-10.969,0-10.284,4.757-10.284,4.757l.012,4.928H21.788v1.48H7.164S.145,10.441.145,21.508,6.271,32.184,6.271,32.184H9.927V27.048s-.2-6.126,6.029-6.126H26.337s5.833.094,5.833-5.637V5.807S33.056.072,21.593.072ZM15.821,3.386a1.883,1.883,0,1,1-1.883,1.883,1.881,1.881,0,0,1,1.883-1.883Z" transform="translate(0 0)" fill="url(#linear-gradient)"></path><path id="Path_36454" data-name="Path 36454" d="M76.738,96.434c10.969,0,10.284-4.757,10.284-4.757l-.012-4.928H76.543v-1.48H91.168s7.019.8,7.019-10.272S92.06,64.322,92.06,64.322H88.4v5.136s.2,6.126-6.029,6.126H71.994s-5.833-.094-5.833,5.637V90.7s-.886,5.735,10.577,5.735ZM82.51,93.12a1.883,1.883,0,1,1,1.883-1.883A1.881,1.881,0,0,1,82.51,93.12Z" transform="translate(-54.834 -53.378)" fill="url(#linear-gradient-2)"></path></g></g></svg>